<svg xmlns="http://www.w3.org/2000/svg" width="1093" height="612" viewBox="0 0 1093 612" fill="none"><path d="M292.675 238.564C291.888 243.363 290.876 248.236 289.638 253.222C288.401 258.171 287.013 263.307 285.439 268.555C275.69 272.417 261.254 274.366 242.206 274.366C230.133 274.366 219.147 272.642 209.323 269.118C199.461 265.631 191.137 260.683 184.313 254.235C177.489 247.824 172.24 240.101 168.49 231.104C164.778 222.106 162.903 212.134 162.903 201.112C162.903 190.878 164.853 181.093 168.715 171.721C172.577 162.349 177.902 154.063 184.651 146.866C191.4 139.668 199.349 133.894 208.46 129.546C217.609 125.197 227.433 123.022 237.969 123.022C244.644 123.022 250.38 123.135 255.18 123.36C259.979 123.585 264.216 124.035 267.853 124.634C271.49 125.272 274.865 126.209 277.977 127.521C281.089 128.833 284.239 130.52 287.501 132.507C287.951 136.219 288.326 139.968 288.551 143.791C288.776 147.578 288.813 151.514 288.663 155.526H284.239C281.127 146.528 275.915 139.668 268.566 134.944C261.217 130.22 252.33 127.859 241.944 127.859C233.732 127.859 226.158 129.658 219.297 133.22C212.397 136.781 206.473 141.767 201.524 148.215C196.574 154.663 192.637 162.386 189.788 171.458C186.9 180.531 185.476 190.465 185.476 201.337C185.476 223.493 190.238 240.364 199.761 251.873C209.285 263.419 223.421 269.193 242.169 269.193C263.691 269.193 279.514 258.958 289.601 238.527H292.638L292.675 238.564Z" fill="white"></path><path d="M348.919 260.158C348.919 262.182 349.256 263.682 349.969 264.694C350.681 265.706 352.481 266.194 355.443 266.194H377.078C384.352 266.194 390.689 265.969 396.013 265.481C401.375 265.031 406.137 263.719 410.299 261.545C414.499 259.37 418.211 256.109 421.473 251.798C424.735 247.449 427.997 241.338 431.222 233.428H434.934L428.185 271.554C421.66 271.255 413.111 271.03 402.5 270.842C391.889 270.692 378.915 270.617 363.542 270.617C348.169 270.617 335.496 270.692 325.409 270.842C315.323 270.992 307.824 271.217 302.875 271.554V268.293L317.048 266.194C320.76 265.744 323.535 265.181 325.297 264.581C327.059 263.982 328.334 263.082 329.009 261.92C329.721 260.758 330.059 259.258 330.059 257.384V138.843C330.059 135.919 329.571 134.007 328.559 133.144C327.547 132.282 326.047 131.72 324.022 131.42L306.137 128.383V124.672C314.498 125.122 327.059 125.384 343.782 125.384C360.505 125.384 370.891 125.159 374.941 124.672V128.383L354.956 131.42C352.631 131.72 351.056 132.245 350.194 132.919C349.331 133.632 348.919 135.581 348.919 138.843V260.158Z" fill="white"></path><path d="M466.092 258.096V137.943C466.092 135.319 465.642 133.444 464.817 132.357C463.955 131.27 462.455 130.67 460.28 130.483L439.808 128.383V124.672C441.345 125.122 457.618 125.384 488.627 125.384C497.776 125.384 505.05 125.159 510.487 124.672V128.608L496.763 129.995C494.588 130.295 492.714 130.483 491.176 130.558C489.639 130.633 488.289 130.858 487.239 131.27C486.152 131.645 485.365 132.357 484.915 133.369C484.465 134.382 484.202 135.881 484.202 137.906V258.058C484.202 260.683 484.577 262.445 485.365 263.307C486.152 264.169 487.689 264.656 490.014 264.806L510.487 265.969V271.554C507.374 271.255 502.912 271.03 497.101 270.842C491.289 270.692 483.977 270.617 475.128 270.617C466.279 270.617 458.968 270.692 453.156 270.842C447.344 270.992 442.882 271.217 439.77 271.554V265.969L453.493 265.256C455.818 265.106 457.805 264.956 459.418 264.806C461.03 264.656 462.38 264.432 463.355 264.094C464.367 263.794 465.042 263.157 465.454 262.22C465.867 261.282 466.054 259.895 466.054 258.021L466.092 258.096Z" fill="white"></path><path d="M550.457 255.059C550.457 258.921 550.907 261.545 551.845 262.857C552.782 264.169 554.694 264.994 557.656 265.294L579.029 267.618V271.33C569.73 270.88 560.431 270.617 551.132 270.617C541.833 270.617 531.072 270.842 518.811 271.33V267.618L531.597 265.294C536.846 264.357 540.221 263.269 541.721 262.032C543.183 260.795 543.933 258.471 543.933 255.059V153.726C543.933 146.603 543.146 141.242 541.608 137.681C540.071 134.119 537.109 132.02 532.759 131.42L519.036 129.321V125.384H546.933C550.195 125.384 552.482 125.759 553.794 126.546C555.107 127.334 556.944 128.946 559.269 131.42L664.331 246.024L662.006 141.43C661.856 137.081 661.107 134.307 659.794 133.07C658.482 131.832 656.42 131.045 653.645 130.745L633.66 128.421V124.709C638.009 125.159 646.371 125.422 658.782 125.422C671.193 125.422 679.404 125.197 683.904 124.709V128.421L674.155 129.358C671.53 129.658 669.88 130.595 669.281 132.132C668.643 133.669 668.418 136.781 668.568 141.43L670.893 273.691H665.306L550.457 150.502V255.097V255.059Z" fill="white"></path><path d="M842.434 232.753C839.022 246.549 837.072 259.333 836.622 271.105C817.237 270.655 794.627 270.392 768.756 270.392C742.884 270.392 720.086 270.617 700.889 271.105V267.168L717.612 266.006C720.236 265.856 722.074 265.294 723.086 264.394C724.098 263.457 724.586 261.283 724.586 257.871V140.942C724.586 137.231 724.173 134.532 723.311 132.92C722.449 131.308 720.949 130.408 718.774 130.258L701.789 128.646V124.447C714.35 124.897 735.272 125.159 764.556 125.159C793.84 125.159 814.463 124.934 826.874 124.447C826.424 129.246 826.161 134.607 826.161 140.492C826.161 146.378 826.311 151.814 826.611 156.763H823.574C820.949 150.24 818.812 145.254 817.162 141.767C815.55 138.281 814.088 135.656 812.85 133.857C811.613 132.095 810.376 131.008 809.138 130.595C807.901 130.22 806.251 129.92 804.264 129.77H750.345C747.721 129.77 745.921 130.52 744.983 131.982C744.046 133.444 743.596 135.956 743.596 139.555V193.015H795.902C798.527 193.015 800.477 192.602 801.714 191.74C802.951 190.878 803.889 189.003 804.489 186.042L807.526 169.771H812.175C811.238 188.216 811.238 206.811 812.175 225.555H809.401L804.301 207.411C803.514 205.086 802.577 203.324 801.527 202.05C800.439 200.812 799.014 199.913 797.215 199.388C795.415 198.863 793.278 198.526 790.69 198.451C788.141 198.376 784.991 198.338 781.279 198.338H743.634V256.221C743.634 259.633 744.234 261.995 745.508 263.307C746.746 264.619 749.37 265.294 753.42 265.294H805.014C808.426 265.294 811.425 264.956 814.088 264.244C816.75 263.532 819.262 262.032 821.774 259.708C824.249 257.384 826.761 254.085 829.348 249.811C831.898 245.537 834.748 239.839 837.822 232.716H842.472L842.434 232.753Z" fill="white"></path><path d="M890.556 143.658L885.802 157.645C885.617 158.248 885.579 158.7 885.691 159.04C885.802 159.379 886.396 159.567 887.474 159.643L891.633 159.944V160.925C891.225 160.887 890.445 160.849 889.219 160.849C887.993 160.849 886.359 160.849 884.317 160.849C882.274 160.849 880.603 160.849 879.414 160.849C878.188 160.849 877.409 160.887 877 160.925V159.944L880.751 159.643C882.051 159.53 882.98 158.776 883.5 157.418L896.796 121H898.504L911.652 157.004C911.912 157.682 912.172 158.135 912.432 158.399C912.655 158.625 913.1 158.851 913.732 159.077L917 160.095V161C914.994 160.887 912.395 160.812 909.201 160.812H906.229C905.301 160.812 904.447 160.812 903.63 160.887C902.812 160.962 902.07 160.962 901.401 161V160.095L905.338 159.492C905.895 159.417 906.341 159.303 906.638 159.228C906.972 159.115 907.158 159.002 907.269 158.813C907.381 158.625 907.418 158.399 907.344 158.135C907.269 157.871 907.195 157.532 907.046 157.155L902.218 143.696H890.519L890.556 143.658ZM901.773 142.338L896.239 126.768L891.002 142.338H901.773Z" fill="white"></path><path d="M881 178.631C882.956 178.631 884.612 178.631 885.928 178.631C887.245 178.631 888.261 178.594 888.938 178.557L897.478 178.074C897.779 178.037 898.118 178 898.419 178H899.359C901.617 178 903.535 178.334 905.153 178.966C906.771 179.597 908.087 180.414 909.103 181.417C910.119 182.42 910.871 183.609 911.323 184.909C911.774 186.209 912 187.584 912 188.921C912 190.481 911.699 191.93 911.097 193.267C910.495 194.604 909.667 195.793 908.614 196.796C907.561 197.799 906.319 198.616 904.89 199.173C903.46 199.73 901.917 200.027 900.3 200.027C897.779 200.027 895.86 199.247 894.506 197.724L894.882 197.353C895.898 197.724 896.951 197.873 898.118 197.873C899.284 197.873 900.45 197.65 901.504 197.241C902.557 196.833 903.498 196.239 904.288 195.496C905.078 194.753 905.68 193.824 906.131 192.747C906.583 191.67 906.808 190.481 906.808 189.181C906.808 188.066 906.62 186.989 906.282 185.986C905.905 184.946 905.379 184.018 904.664 183.2C903.949 182.383 903.046 181.64 901.917 181.046C900.826 180.452 899.51 180.043 898.042 179.857C897.215 179.746 896.274 179.672 895.221 179.672C893.866 179.672 892.776 179.82 892.023 180.154V212.137C892.023 212.731 892.136 213.14 892.399 213.4C892.663 213.66 893.227 213.883 894.13 214.068L898.532 215.034V216C896.839 215.926 895.371 215.851 894.092 215.814C892.813 215.777 891.76 215.74 890.857 215.74C889.126 215.74 886.267 215.814 882.242 215.926V214.96L885.627 214.477C886.229 214.366 886.643 214.143 886.831 213.808C887.019 213.511 887.132 212.954 887.132 212.211V183.869C887.132 182.346 886.643 181.343 885.703 180.823C884.762 180.303 883.22 179.932 881.038 179.709V178.594L881 178.631Z" fill="white"></path><path d="M914 262.738C913.81 263.975 913.543 265.25 913.2 266.525C912.858 267.8 912.515 269.113 912.096 270.5C909.545 271.513 905.776 272 900.75 272C897.59 272 894.696 271.55 892.146 270.65C889.557 269.75 887.386 268.475 885.597 266.825C883.807 265.175 882.437 263.188 881.447 260.863C880.457 258.538 880 255.95 880 253.137C880 250.512 880.495 247.963 881.523 245.563C882.551 243.125 883.922 240.987 885.711 239.15C887.501 237.312 889.557 235.813 891.955 234.688C894.354 233.563 896.943 233 899.684 233C901.436 233 902.92 233 904.177 233.075C905.433 233.15 906.538 233.263 907.489 233.413C908.441 233.563 909.317 233.825 910.155 234.163C910.954 234.5 911.792 234.95 912.667 235.438C912.782 236.413 912.896 237.35 912.934 238.363C913.01 239.338 913.01 240.35 912.934 241.4H911.792C910.992 239.075 909.621 237.312 907.68 236.075C905.738 234.837 903.415 234.238 900.712 234.238C898.542 234.238 896.562 234.688 894.773 235.625C892.983 236.563 891.422 237.837 890.128 239.487C888.833 241.137 887.805 243.162 887.044 245.487C886.282 247.812 885.901 250.4 885.901 253.213C885.901 258.95 887.158 263.3 889.633 266.263C892.146 269.225 895.839 270.725 900.75 270.725C906.385 270.725 910.535 268.1 913.162 262.813H913.962L914 262.738Z" fill="white"></path><path d="M542.481 392L540.457 391.55L118 296.964V97.0995L542.481 0L544.543 0.45023L967 95.7864V297.677L542.481 392ZM136.746 281.919L542.519 372.79L948.254 282.632V110.794L542.519 19.2473L136.746 112.032V281.919Z" fill="white"></path><path d="M65.3345 427.264L94.8065 495.424H83.5745L62.1665 439.552L65.3345 427.264ZM44.6945 488.992C44.2465 490.272 44.1825 491.36 44.5025 492.256C44.8225 493.152 45.3345 493.856 46.0385 494.368C46.8065 494.816 47.5745 495.04 48.3425 495.04H49.2065V496H29.5265V495.04C29.5265 495.04 29.6865 495.04 30.0065 495.04C30.2625 495.04 30.3905 495.04 30.3905 495.04C31.8625 495.04 33.3665 494.592 34.9025 493.696C36.5025 492.736 37.8145 491.168 38.8385 488.992H44.6945ZM65.3345 427.264L66.1025 435.616L42.1025 495.712H35.8625L60.5345 438.016C60.5985 437.888 60.8225 437.408 61.2065 436.576C61.6545 435.68 62.1025 434.624 62.5505 433.408C63.0625 432.192 63.5105 431.008 63.8945 429.856C64.2785 428.704 64.4705 427.84 64.4705 427.264H65.3345ZM77.7185 470.944V474.208H48.3425V470.944H77.7185ZM81.0785 488.992H91.9265C92.9505 491.168 94.2305 492.736 95.7665 493.696C97.3665 494.592 98.9025 495.04 100.375 495.04C100.375 495.04 100.503 495.04 100.759 495.04C101.015 495.04 101.143 495.04 101.143 495.04V496H76.5665V495.04H77.4305C78.7105 495.04 79.8305 494.528 80.7905 493.504C81.7505 492.416 81.8465 490.912 81.0785 488.992ZM192.138 467.968L191.658 483.52C190.058 486.144 188.01 488.512 185.514 490.624C183.082 492.672 180.138 494.304 176.682 495.52C173.226 496.736 169.226 497.344 164.682 497.344C157.642 497.28 151.402 495.84 145.962 493.024C140.586 490.144 136.394 486.112 133.386 480.928C130.378 475.68 128.874 469.472 128.874 462.304C128.874 455.264 130.346 449.152 133.29 443.968C136.298 438.72 140.49 434.656 145.866 431.776C151.306 428.896 157.738 427.456 165.162 427.456C170.026 427.456 174.41 428.064 178.314 429.28C182.218 430.432 185.546 431.872 188.298 433.6L189.642 448.096H188.778C187.242 442.208 184.362 437.856 180.138 435.04C175.978 432.16 171.114 430.72 165.546 430.72C160.042 430.72 155.306 432.032 151.338 434.656C147.37 437.216 144.298 440.864 142.122 445.6C139.946 450.272 138.858 455.808 138.858 462.208C138.858 468.544 139.914 474.08 142.026 478.816C144.202 483.552 147.21 487.264 151.05 489.952C154.954 492.576 159.498 493.952 164.682 494.08C169.354 494.08 173.546 493.248 177.258 491.584C180.97 489.92 184.042 487.2 186.474 483.424C188.906 479.584 190.538 474.432 191.37 467.968H192.138ZM228.868 436.672L255.94 495.424H245.476L225.892 448.192L228.868 436.672ZM210.532 489.184C209.828 491.04 209.924 492.48 210.82 493.504C211.716 494.528 212.74 495.04 213.892 495.04H214.66V496H196.035V495.04C196.035 495.04 196.163 495.04 196.419 495.04C196.675 495.04 196.803 495.04 196.803 495.04C198.084 495.04 199.428 494.592 200.836 493.696C202.244 492.8 203.46 491.296 204.484 489.184H210.532ZM228.868 436.672L229.444 444.928L207.844 495.712H201.412L224.068 447.136C224.132 447.008 224.356 446.528 224.74 445.696C225.124 444.8 225.54 443.776 225.988 442.624C226.5 441.472 226.948 440.352 227.332 439.264C227.78 438.176 228.036 437.312 228.1 436.672H228.868ZM239.236 474.784V477.952H214.084V474.784H239.236ZM242.98 489.184H253.156C254.116 491.296 255.3 492.8 256.708 493.696C258.116 494.592 259.46 495.04 260.74 495.04C260.74 495.04 260.868 495.04 261.124 495.04C261.38 495.04 261.508 495.04 261.508 495.04V496H238.948V495.04H239.716C240.804 495.04 241.796 494.528 242.692 493.504C243.588 492.48 243.684 491.04 242.98 489.184ZM280.345 438.4V496H271.609V438.4H280.345ZM305.017 492.736L305.689 496H280.153V492.736H305.017ZM310.681 480.928L305.977 496H290.713L293.881 492.736C296.889 492.736 299.385 492.256 301.369 491.296C303.417 490.272 305.113 488.864 306.457 487.072C307.801 485.28 308.889 483.232 309.721 480.928H310.681ZM271.801 489.856L272.857 496H264.889V495.04C264.889 495.04 265.081 495.04 265.465 495.04C265.913 495.04 266.169 495.04 266.233 495.04C267.769 495.04 269.017 494.528 269.977 493.504C271.001 492.48 271.545 491.264 271.609 489.856H271.801ZM280.057 444.544V438.4H287.065V439.36C287.001 439.36 286.777 439.36 286.393 439.36C286.073 439.36 285.913 439.36 285.913 439.36C284.377 439.36 283.065 439.872 281.977 440.896C280.889 441.856 280.345 443.072 280.345 444.544H280.057ZM271.801 444.544H271.609C271.545 443.072 270.969 441.856 269.881 440.896C268.857 439.872 267.577 439.36 266.041 439.36C266.041 439.36 265.849 439.36 265.465 439.36C265.081 439.36 264.889 439.36 264.889 439.36V438.4H271.801V444.544ZM331.08 438.4V496H322.44V438.4H331.08ZM322.728 489.856V496H314.952V495.04C314.952 495.04 315.144 495.04 315.528 495.04C315.976 495.04 316.232 495.04 316.296 495.04C317.96 495.04 319.368 494.528 320.52 493.504C321.736 492.48 322.376 491.264 322.44 489.856H322.728ZM330.792 489.856H331.08C331.144 491.264 331.752 492.48 332.904 493.504C334.12 494.528 335.592 495.04 337.32 495.04C337.32 495.04 337.512 495.04 337.896 495.04C338.28 495.04 338.472 495.04 338.472 495.04L338.568 496H330.792V489.856ZM330.792 444.544V438.4H338.568L338.472 439.36C338.472 439.36 338.28 439.36 337.896 439.36C337.512 439.36 337.32 439.36 337.32 439.36C335.592 439.36 334.12 439.872 332.904 440.896C331.752 441.856 331.144 443.072 331.08 444.544H330.792ZM322.728 444.544H322.44C322.376 443.072 321.736 441.856 320.52 440.896C319.368 439.872 317.928 439.36 316.2 439.36C316.2 439.36 315.976 439.36 315.528 439.36C315.144 439.36 314.952 439.36 314.952 439.36V438.4H322.728V444.544ZM362.939 438.4V496H354.299V438.4H362.939ZM383.771 465.664V468.928H362.747V465.664H383.771ZM388.283 438.4V441.664H362.747V438.4H388.283ZM383.771 468.736V475.168H382.715V474.112C382.715 472.64 382.299 471.424 381.467 470.464C380.635 469.44 379.355 468.928 377.627 468.928V468.736H383.771ZM383.771 459.424V465.856H377.627V465.664C379.355 465.664 380.635 465.152 381.467 464.128C382.299 463.104 382.715 461.888 382.715 460.48V459.424H383.771ZM388.283 441.376V449.248H387.227V448C387.227 446.144 386.683 444.64 385.595 443.488C384.507 442.272 383.003 441.664 381.083 441.664V441.376H388.283ZM388.283 436.864V439.36L377.531 438.4C378.811 438.4 380.155 438.336 381.563 438.208C383.035 438.016 384.379 437.792 385.595 437.536C386.811 437.28 387.707 437.056 388.283 436.864ZM354.491 489.856L355.451 496H347.483V495.04C347.483 495.04 347.675 495.04 348.059 495.04C348.507 495.04 348.763 495.04 348.827 495.04C350.363 495.04 351.643 494.528 352.667 493.504C353.691 492.48 354.235 491.264 354.299 489.856H354.491ZM354.491 444.448H354.299C354.235 442.976 353.691 441.76 352.667 440.8C351.643 439.84 350.363 439.36 348.827 439.36C348.763 439.36 348.507 439.36 348.059 439.36C347.675 439.36 347.483 439.36 347.483 439.36V438.4H355.451L354.491 444.448ZM362.747 489.856H362.939C363.003 491.264 363.547 492.48 364.571 493.504C365.595 494.528 366.907 495.04 368.507 495.04C368.507 495.04 368.699 495.04 369.083 495.04C369.531 495.04 369.755 495.04 369.755 495.04V496H361.787L362.747 489.856ZM429.621 437.056C434.357 437.056 438.709 437.792 442.677 439.264C446.709 440.672 450.197 442.72 453.141 445.408C456.149 448.032 458.485 451.2 460.149 454.912C461.813 458.56 462.645 462.656 462.645 467.2C462.645 471.744 461.813 475.872 460.149 479.584C458.485 483.232 456.149 486.4 453.141 489.088C450.197 491.712 446.709 493.76 442.677 495.232C438.709 496.64 434.357 497.344 429.621 497.344C424.949 497.344 420.629 496.64 416.661 495.232C412.693 493.76 409.205 491.712 406.197 489.088C403.189 486.4 400.853 483.232 399.189 479.584C397.589 475.872 396.789 471.744 396.789 467.2C396.789 462.656 397.589 458.56 399.189 454.912C400.853 451.2 403.189 448.032 406.197 445.408C409.205 442.72 412.693 440.672 416.661 439.264C420.629 437.792 424.949 437.056 429.621 437.056ZM429.621 494.176C434.101 494.176 438.101 493.056 441.621 490.816C445.141 488.512 447.893 485.344 449.877 481.312C451.925 477.28 452.949 472.576 452.949 467.2C452.949 461.76 451.925 457.056 449.877 453.088C447.893 449.056 445.141 445.92 441.621 443.68C438.101 441.376 434.101 440.224 429.621 440.224C425.269 440.224 421.333 441.376 417.813 443.68C414.293 445.92 411.509 449.056 409.461 453.088C407.413 457.056 406.389 461.76 406.389 467.2C406.389 472.576 407.413 477.28 409.461 481.312C411.509 485.344 414.293 488.512 417.813 490.816C421.333 493.056 425.269 494.176 429.621 494.176ZM484.602 438.4H496.314C499.194 438.4 501.85 438.72 504.282 439.36C506.714 440 508.826 440.992 510.618 442.336C512.41 443.616 513.786 445.248 514.746 447.232C515.77 449.152 516.282 451.424 516.282 454.048C516.282 456.544 515.706 458.944 514.554 461.248C513.402 463.488 511.738 465.376 509.562 466.912C507.386 468.448 504.826 469.408 501.882 469.792C503.226 470.24 504.666 471.264 506.202 472.864C507.738 474.464 508.986 476 509.946 477.472C510.074 477.6 510.522 478.24 511.29 479.392C512.058 480.48 513.018 481.824 514.17 483.424C515.386 484.96 516.602 486.496 517.818 488.032C519.162 489.568 520.346 490.848 521.37 491.872C522.458 492.896 523.61 493.696 524.826 494.272C526.042 494.784 527.45 495.04 529.05 495.04V496H524.442C520.922 496 518.01 495.616 515.706 494.848C513.402 494.08 511.482 493.024 509.946 491.68C508.41 490.336 507.066 488.864 505.914 487.264C505.53 486.816 504.922 485.952 504.09 484.672C503.258 483.392 502.362 482.048 501.402 480.64C500.506 479.168 499.674 477.824 498.906 476.608C498.138 475.392 497.658 474.592 497.466 474.208C496.314 472.416 495.002 470.944 493.53 469.792C492.122 468.576 490.65 467.968 489.114 467.968V467.008C489.114 467.008 489.53 467.04 490.362 467.104C491.194 467.104 492.25 467.072 493.53 467.008C495.194 466.944 496.826 466.784 498.426 466.528C500.09 466.208 501.626 465.44 503.034 464.224C504.442 462.944 505.53 460.96 506.298 458.272C506.49 457.696 506.65 456.992 506.778 456.16C506.906 455.264 506.938 454.304 506.874 453.28C506.746 451.296 506.362 449.6 505.722 448.192C505.082 446.784 504.186 445.632 503.034 444.736C501.946 443.776 500.698 443.072 499.29 442.624C497.946 442.112 496.474 441.824 494.874 441.76C492.506 441.696 490.394 441.696 488.538 441.76C486.746 441.76 485.754 441.728 485.562 441.664C485.562 441.664 485.466 441.408 485.274 440.896C485.146 440.32 484.986 439.776 484.794 439.264C484.666 438.688 484.602 438.4 484.602 438.4ZM485.754 438.4V496H477.018V438.4H485.754ZM477.306 489.856L478.17 496H470.394V495.04C470.458 495.04 470.682 495.04 471.066 495.04C471.45 495.04 471.674 495.04 471.738 495.04C473.21 495.04 474.458 494.528 475.482 493.504C476.506 492.48 477.05 491.264 477.114 489.856H477.306ZM477.306 444.448H477.114C477.05 442.976 476.506 441.76 475.482 440.8C474.458 439.84 473.21 439.36 471.738 439.36C471.674 439.36 471.45 439.36 471.066 439.36C470.682 439.36 470.458 439.36 470.394 439.36V438.4H478.17L477.306 444.448ZM485.466 489.856H485.754C485.754 491.328 486.266 492.576 487.29 493.6C488.378 494.56 489.658 495.04 491.13 495.04C491.13 495.04 491.29 495.04 491.61 495.04C491.994 495.04 492.218 495.04 492.282 495.04L492.378 496H484.506L485.466 489.856ZM536.511 436.96L590.751 486.88L591.711 497.344L537.567 447.232L536.511 436.96ZM536.799 490.048V496H529.599V495.04C529.599 495.04 529.855 495.04 530.367 495.04C530.943 495.04 531.231 495.04 531.231 495.04C532.703 495.04 533.951 494.56 534.975 493.6C535.999 492.64 536.511 491.456 536.511 490.048H536.799ZM543.807 490.048C543.807 491.456 544.319 492.64 545.343 493.6C546.431 494.56 547.679 495.04 549.087 495.04C549.087 495.04 549.343 495.04 549.855 495.04C550.431 495.04 550.719 495.04 550.719 495.04V496H543.519V490.048H543.807ZM536.511 436.96L543.711 445.408L543.807 496H536.511V448.672C536.511 445.408 536.351 442.656 536.031 440.416C535.775 438.112 535.647 436.96 535.647 436.96H536.511ZM591.711 438.4V485.344C591.711 487.456 591.775 489.44 591.903 491.296C592.031 493.088 592.159 494.56 592.287 495.712C592.479 496.8 592.575 497.344 592.575 497.344H591.711L584.511 488.8V438.4H591.711ZM591.423 444.352V438.4H598.623V439.36C598.623 439.36 598.335 439.36 597.759 439.36C597.247 439.36 596.991 439.36 596.991 439.36C595.583 439.36 594.335 439.84 593.247 440.8C592.223 441.76 591.711 442.944 591.711 444.352H591.423ZM584.511 444.352C584.447 442.944 583.903 441.76 582.879 440.8C581.855 439.84 580.607 439.36 579.135 439.36C579.135 439.36 578.847 439.36 578.271 439.36C577.759 439.36 577.503 439.36 577.503 439.36V438.4H584.703V444.352H584.511ZM622.267 438.4V496H613.627V438.4H622.267ZM613.915 489.856V496H606.139V495.04C606.139 495.04 606.331 495.04 606.715 495.04C607.163 495.04 607.419 495.04 607.483 495.04C609.147 495.04 610.555 494.528 611.707 493.504C612.923 492.48 613.563 491.264 613.627 489.856H613.915ZM621.979 489.856H622.267C622.331 491.264 622.939 492.48 624.091 493.504C625.307 494.528 626.779 495.04 628.507 495.04C628.507 495.04 628.699 495.04 629.083 495.04C629.467 495.04 629.659 495.04 629.659 495.04L629.755 496H621.979V489.856ZM621.979 444.544V438.4H629.755L629.659 439.36C629.659 439.36 629.467 439.36 629.083 439.36C628.699 439.36 628.507 439.36 628.507 439.36C626.779 439.36 625.307 439.872 624.091 440.896C622.939 441.856 622.331 443.072 622.267 444.544H621.979ZM613.915 444.544H613.627C613.563 443.072 612.923 441.856 611.707 440.896C610.555 439.872 609.115 439.36 607.387 439.36C607.387 439.36 607.163 439.36 606.715 439.36C606.331 439.36 606.139 439.36 606.139 439.36V438.4H613.915V444.544ZM665.93 436.672L693.002 495.424H682.538L662.954 448.192L665.93 436.672ZM647.594 489.184C646.89 491.04 646.986 492.48 647.882 493.504C648.778 494.528 649.802 495.04 650.954 495.04H651.722V496H633.098V495.04C633.098 495.04 633.226 495.04 633.482 495.04C633.738 495.04 633.866 495.04 633.866 495.04C635.146 495.04 636.49 494.592 637.898 493.696C639.306 492.8 640.522 491.296 641.546 489.184H647.594ZM665.93 436.672L666.506 444.928L644.906 495.712H638.474L661.13 447.136C661.194 447.008 661.418 446.528 661.802 445.696C662.186 444.8 662.602 443.776 663.05 442.624C663.562 441.472 664.01 440.352 664.394 439.264C664.842 438.176 665.098 437.312 665.162 436.672H665.93ZM676.298 474.784V477.952H651.146V474.784H676.298ZM680.042 489.184H690.218C691.178 491.296 692.362 492.8 693.77 493.696C695.178 494.592 696.522 495.04 697.802 495.04C697.802 495.04 697.93 495.04 698.186 495.04C698.442 495.04 698.57 495.04 698.57 495.04V496H676.01V495.04H676.778C677.866 495.04 678.858 494.528 679.754 493.504C680.65 492.48 680.746 491.04 680.042 489.184ZM742.848 428.8V496H733.92V428.8H742.848ZM768.576 492.64L769.344 496H742.56V492.64H768.576ZM774.816 479.104L769.632 496H752.736L756.192 492.64C759.52 492.64 762.304 492.096 764.544 491.008C766.784 489.856 768.64 488.256 770.112 486.208C771.584 484.16 772.832 481.792 773.856 479.104H774.816ZM734.208 488.992V496H726.528V495.04C726.528 495.04 726.72 495.04 727.104 495.04C727.552 495.04 727.776 495.04 727.776 495.04C729.44 495.04 730.848 494.464 732 493.312C733.216 492.096 733.856 490.656 733.92 488.992H734.208ZM734.208 435.808H733.92C733.856 434.144 733.216 432.736 732 431.584C730.848 430.368 729.44 429.76 727.776 429.76C727.776 429.76 727.552 429.76 727.104 429.76C726.72 429.76 726.528 429.76 726.528 429.76V428.8H734.208V435.808ZM742.56 435.808V428.8H750.24V429.76C750.176 429.76 749.952 429.76 749.568 429.76C749.184 429.76 748.992 429.76 748.992 429.76C747.328 429.76 745.888 430.368 744.672 431.584C743.52 432.736 742.912 434.144 742.848 435.808H742.56ZM797.095 438.4V496H788.359V438.4H797.095ZM821.767 492.736L822.439 496H796.903V492.736H821.767ZM817.735 465.664V468.928H796.903V465.664H817.735ZM822.055 438.4V441.664H796.903V438.4H822.055ZM827.431 480.928L822.727 496H807.463L810.631 492.736C813.639 492.736 816.135 492.256 818.119 491.296C820.167 490.272 821.863 488.864 823.207 487.072C824.551 485.28 825.639 483.232 826.471 480.928H827.431ZM817.735 468.736V475.168H816.679V474.112C816.679 472.64 816.231 471.424 815.335 470.464C814.503 469.44 813.255 468.928 811.591 468.928V468.736H817.735ZM817.735 459.424V465.856H811.591V465.664C813.255 465.664 814.503 465.152 815.335 464.128C816.231 463.104 816.679 461.888 816.679 460.48V459.424H817.735ZM822.055 441.376V449.248H821.095V448C821.095 446.144 820.551 444.64 819.463 443.488C818.375 442.272 816.871 441.664 814.951 441.664V441.376H822.055ZM822.055 436.864V439.36L811.399 438.4C813.383 438.4 815.463 438.24 817.639 437.92C819.815 437.536 821.287 437.184 822.055 436.864ZM788.551 489.856L789.607 496H781.639V495.04C781.639 495.04 781.831 495.04 782.215 495.04C782.663 495.04 782.919 495.04 782.983 495.04C784.519 495.04 785.767 494.528 786.727 493.504C787.751 492.48 788.295 491.264 788.359 489.856H788.551ZM788.551 444.448H788.359C788.295 442.976 787.751 441.76 786.727 440.8C785.767 439.84 784.519 439.36 782.983 439.36C782.919 439.36 782.663 439.36 782.215 439.36C781.831 439.36 781.639 439.36 781.639 439.36V438.4H789.607L788.551 444.448ZM897.2 437.056L898.064 444.544L874.448 487.744C874.448 487.744 874.192 488.288 873.68 489.376C873.168 490.4 872.656 491.68 872.144 493.216C871.632 494.688 871.28 496.128 871.088 497.536H870.128L868.016 490.816L897.2 437.056ZM840.08 489.664V496H830.288V495.04C830.288 495.04 830.512 495.04 830.96 495.04C831.408 495.04 831.632 495.04 831.632 495.04C833.296 495.04 834.736 494.592 835.952 493.696C837.168 492.736 837.872 491.392 838.064 489.664H840.08ZM843.344 491.104C843.28 491.936 843.504 492.8 844.016 493.696C844.528 494.592 845.456 495.072 846.8 495.136H848.144V496H842.576L842.768 491.104H843.344ZM845.552 437.056H846.512L848.816 443.968L842.864 496H837.296L845.552 437.056ZM846.512 437.056L873.392 484.768L870.128 497.536L844.496 451.456L846.512 437.056ZM898.064 437.056L906.704 496H896.912L891.152 452.128L897.2 437.056H898.064ZM903.824 489.664H905.744C906 491.392 906.736 492.736 907.952 493.696C909.232 494.592 910.672 495.04 912.272 495.04C912.272 495.04 912.496 495.04 912.944 495.04C913.392 495.04 913.616 495.04 913.616 495.04V496H903.824V489.664ZM896.24 491.104H896.912L897.104 496H891.44V495.136H892.88C894.288 495.072 895.216 494.592 895.664 493.696C896.176 492.8 896.368 491.936 896.24 491.104ZM950.496 437.056C955.232 437.056 959.584 437.792 963.552 439.264C967.584 440.672 971.072 442.72 974.016 445.408C977.024 448.032 979.36 451.2 981.024 454.912C982.688 458.56 983.52 462.656 983.52 467.2C983.52 471.744 982.688 475.872 981.024 479.584C979.36 483.232 977.024 486.4 974.016 489.088C971.072 491.712 967.584 493.76 963.552 495.232C959.584 496.64 955.232 497.344 950.496 497.344C945.824 497.344 941.504 496.64 937.536 495.232C933.568 493.76 930.08 491.712 927.072 489.088C924.064 486.4 921.728 483.232 920.064 479.584C918.464 475.872 917.664 471.744 917.664 467.2C917.664 462.656 918.464 458.56 920.064 454.912C921.728 451.2 924.064 448.032 927.072 445.408C930.08 442.72 933.568 440.672 937.536 439.264C941.504 437.792 945.824 437.056 950.496 437.056ZM950.496 494.176C954.976 494.176 958.976 493.056 962.496 490.816C966.016 488.512 968.768 485.344 970.752 481.312C972.8 477.28 973.824 472.576 973.824 467.2C973.824 461.76 972.8 457.056 970.752 453.088C968.768 449.056 966.016 445.92 962.496 443.68C958.976 441.376 954.976 440.224 950.496 440.224C946.144 440.224 942.208 441.376 938.688 443.68C935.168 445.92 932.384 449.056 930.336 453.088C928.288 457.056 927.264 461.76 927.264 467.2C927.264 472.576 928.288 477.28 930.336 481.312C932.384 485.344 935.168 488.512 938.688 490.816C942.208 493.056 946.144 494.176 950.496 494.176ZM996.917 436.96L1051.16 486.88L1052.12 497.344L997.973 447.232L996.917 436.96ZM997.205 490.048V496H990.005V495.04C990.005 495.04 990.261 495.04 990.773 495.04C991.349 495.04 991.637 495.04 991.637 495.04C993.109 495.04 994.357 494.56 995.381 493.6C996.405 492.64 996.917 491.456 996.917 490.048H997.205ZM1004.21 490.048C1004.21 491.456 1004.73 492.64 1005.75 493.6C1006.84 494.56 1008.09 495.04 1009.49 495.04C1009.49 495.04 1009.75 495.04 1010.26 495.04C1010.84 495.04 1011.12 495.04 1011.12 495.04V496H1003.93V490.048H1004.21ZM996.917 436.96L1004.12 445.408L1004.21 496H996.917V448.672C996.917 445.408 996.757 442.656 996.437 440.416C996.181 438.112 996.053 436.96 996.053 436.96H996.917ZM1052.12 438.4V485.344C1052.12 487.456 1052.18 489.44 1052.31 491.296C1052.44 493.088 1052.57 494.56 1052.69 495.712C1052.89 496.8 1052.98 497.344 1052.98 497.344H1052.12L1044.92 488.8V438.4H1052.12ZM1051.83 444.352V438.4H1059.03V439.36C1059.03 439.36 1058.74 439.36 1058.17 439.36C1057.65 439.36 1057.4 439.36 1057.4 439.36C1055.99 439.36 1054.74 439.84 1053.65 440.8C1052.63 441.76 1052.12 442.944 1052.12 444.352H1051.83ZM1044.92 444.352C1044.85 442.944 1044.31 441.76 1043.29 440.8C1042.26 439.84 1041.01 439.36 1039.54 439.36C1039.54 439.36 1039.25 439.36 1038.68 439.36C1038.17 439.36 1037.91 439.36 1037.91 439.36V438.4H1045.11V444.352H1044.92ZM133.66 538.8V606H124.732V538.8H133.66ZM159.388 602.64L160.156 606H133.372V602.64H159.388ZM165.628 589.104L160.444 606H143.548L147.004 602.64C150.332 602.64 153.116 602.096 155.356 601.008C157.596 599.856 159.452 598.256 160.924 596.208C162.396 594.16 163.644 591.792 164.668 589.104H165.628ZM125.02 598.992V606H117.34V605.04C117.34 605.04 117.532 605.04 117.916 605.04C118.364 605.04 118.588 605.04 118.588 605.04C120.252 605.04 121.66 604.464 122.812 603.312C124.028 602.096 124.668 600.656 124.732 598.992H125.02ZM125.02 545.808H124.732C124.668 544.144 124.028 542.736 122.812 541.584C121.66 540.368 120.252 539.76 118.588 539.76C118.588 539.76 118.364 539.76 117.916 539.76C117.532 539.76 117.34 539.76 117.34 539.76V538.8H125.02V545.808ZM133.372 545.808V538.8H141.052V539.76C140.988 539.76 140.764 539.76 140.38 539.76C139.996 539.76 139.804 539.76 139.804 539.76C138.14 539.76 136.7 540.368 135.484 541.584C134.332 542.736 133.724 544.144 133.66 545.808H133.372ZM199.524 546.672L226.596 605.424H216.132L196.548 558.192L199.524 546.672ZM181.188 599.184C180.484 601.04 180.58 602.48 181.476 603.504C182.372 604.528 183.396 605.04 184.548 605.04H185.316V606H166.692V605.04C166.692 605.04 166.82 605.04 167.076 605.04C167.332 605.04 167.46 605.04 167.46 605.04C168.74 605.04 170.084 604.592 171.492 603.696C172.9 602.8 174.116 601.296 175.14 599.184H181.188ZM199.524 546.672L200.1 554.928L178.5 605.712H172.068L194.724 557.136C194.788 557.008 195.012 556.528 195.396 555.696C195.78 554.8 196.196 553.776 196.644 552.624C197.156 551.472 197.604 550.352 197.988 549.264C198.436 548.176 198.692 547.312 198.756 546.672H199.524ZM209.892 584.784V587.952H184.74V584.784H209.892ZM213.636 599.184H223.812C224.772 601.296 225.956 602.8 227.364 603.696C228.772 604.592 230.116 605.04 231.396 605.04C231.396 605.04 231.524 605.04 231.78 605.04C232.036 605.04 232.164 605.04 232.164 605.04V606H209.604V605.04H210.372C211.46 605.04 212.452 604.528 213.348 603.504C214.244 602.48 214.34 601.04 213.636 599.184ZM227.302 548.976H237.382L252.07 591.888L249.766 607.152L227.302 548.976ZM267.91 546.96L269.062 555.024L252.742 596.784C252.742 596.784 252.582 597.328 252.262 598.416C251.942 599.44 251.59 600.752 251.206 602.352C250.822 603.952 250.63 605.552 250.63 607.152H249.766L247.654 597.84L267.046 546.96H267.91ZM267.91 546.96L286.534 590.928L283.558 607.152L263.686 560.016L267.91 546.96ZM302.278 548.976L286.438 596.784C286.438 596.784 286.278 597.36 285.958 598.512C285.638 599.6 285.318 600.944 284.998 602.544C284.678 604.08 284.486 605.616 284.422 607.152H283.558L281.926 597.936L296.614 548.976H302.278ZM294.79 554.928C295.43 552.944 295.334 551.536 294.502 550.704C293.734 549.808 292.838 549.36 291.814 549.36H291.046V548.4H308.806V549.36C308.806 549.36 308.678 549.36 308.422 549.36C308.23 549.36 308.134 549.36 308.134 549.36C306.278 549.36 304.646 549.872 303.238 550.896C301.894 551.92 300.934 553.264 300.358 554.928H294.79ZM239.494 554.928H229.702C228.998 553.264 228.006 551.92 226.726 550.896C225.446 549.872 223.846 549.36 221.926 549.36C221.926 549.36 221.798 549.36 221.542 549.36C221.286 549.36 221.158 549.36 221.158 549.36V548.4H243.334V549.36H242.566C241.542 549.36 240.614 549.808 239.782 550.704C238.95 551.536 238.854 552.944 239.494 554.928ZM353.223 538.8V606H344.295V538.8H353.223ZM378.951 602.64L379.719 606H352.935V602.64H378.951ZM385.191 589.104L380.007 606H363.111L366.567 602.64C369.895 602.64 372.679 602.096 374.919 601.008C377.159 599.856 379.015 598.256 380.487 596.208C381.959 594.16 383.207 591.792 384.231 589.104H385.191ZM344.583 598.992V606H336.903V605.04C336.903 605.04 337.095 605.04 337.479 605.04C337.927 605.04 338.151 605.04 338.151 605.04C339.815 605.04 341.223 604.464 342.375 603.312C343.591 602.096 344.231 600.656 344.295 598.992H344.583ZM344.583 545.808H344.295C344.231 544.144 343.591 542.736 342.375 541.584C341.223 540.368 339.815 539.76 338.151 539.76C338.151 539.76 337.927 539.76 337.479 539.76C337.095 539.76 336.903 539.76 336.903 539.76V538.8H344.583V545.808ZM352.935 545.808V538.8H360.615V539.76C360.551 539.76 360.327 539.76 359.943 539.76C359.559 539.76 359.367 539.76 359.367 539.76C357.703 539.76 356.263 540.368 355.047 541.584C353.895 542.736 353.287 544.144 353.223 545.808H352.935ZM407.47 548.4V606H398.734V548.4H407.47ZM432.142 602.736L432.814 606H407.278V602.736H432.142ZM428.11 575.664V578.928H407.278V575.664H428.11ZM432.43 548.4V551.664H407.278V548.4H432.43ZM437.806 590.928L433.102 606H417.838L421.006 602.736C424.014 602.736 426.51 602.256 428.494 601.296C430.542 600.272 432.238 598.864 433.582 597.072C434.926 595.28 436.014 593.232 436.846 590.928H437.806ZM428.11 578.736V585.168H427.054V584.112C427.054 582.64 426.606 581.424 425.71 580.464C424.878 579.44 423.63 578.928 421.966 578.928V578.736H428.11ZM428.11 569.424V575.856H421.966V575.664C423.63 575.664 424.878 575.152 425.71 574.128C426.606 573.104 427.054 571.888 427.054 570.48V569.424H428.11ZM432.43 551.376V559.248H431.47V558C431.47 556.144 430.926 554.64 429.838 553.488C428.75 552.272 427.246 551.664 425.326 551.664V551.376H432.43ZM432.43 546.864V549.36L421.774 548.4C423.758 548.4 425.838 548.24 428.014 547.92C430.19 547.536 431.662 547.184 432.43 546.864ZM398.926 599.856L399.982 606H392.014V605.04C392.014 605.04 392.206 605.04 392.59 605.04C393.038 605.04 393.294 605.04 393.358 605.04C394.894 605.04 396.142 604.528 397.102 603.504C398.126 602.48 398.67 601.264 398.734 599.856H398.926ZM398.926 554.448H398.734C398.67 552.976 398.126 551.76 397.102 550.8C396.142 549.84 394.894 549.36 393.358 549.36C393.294 549.36 393.038 549.36 392.59 549.36C392.206 549.36 392.014 549.36 392.014 549.36V548.4H399.982L398.926 554.448ZM476.75 547.056C479.694 547.056 482.51 547.28 485.198 547.728C487.95 548.112 490.542 548.72 492.974 549.552C495.406 550.32 497.614 551.28 499.598 552.432L501.038 566.544H500.174C499.278 562.704 497.806 559.6 495.758 557.232C493.774 554.8 491.278 553.04 488.27 551.952C485.262 550.8 481.742 550.224 477.71 550.224C472.974 550.224 468.846 551.312 465.326 553.488C461.87 555.664 459.182 558.8 457.262 562.896C455.406 566.928 454.478 571.76 454.478 577.392C454.478 582.832 455.406 587.568 457.262 591.6C459.118 595.632 461.742 598.736 465.134 600.912C468.526 603.088 472.494 604.176 477.038 604.176C479.47 604.176 481.806 603.888 484.046 603.312C486.286 602.672 488.398 601.712 490.382 600.432C492.366 599.152 494.126 597.552 495.662 595.632L495.758 583.248C495.822 582.032 495.438 581.104 494.606 580.464C493.838 579.824 492.782 579.504 491.438 579.504H490.094V578.544H509.966V579.504H508.718C505.838 579.504 504.398 580.784 504.398 583.344V595.248C502.99 597.104 500.942 598.96 498.254 600.816C495.63 602.672 492.494 604.24 488.846 605.52C485.198 606.736 481.102 607.344 476.558 607.344C470.222 607.28 464.686 606.032 459.95 603.6C455.278 601.168 451.63 597.712 449.006 593.232C446.382 588.752 445.07 583.408 445.07 577.2C445.07 570.928 446.382 565.552 449.006 561.072C451.63 556.592 455.31 553.136 460.046 550.704C464.782 548.272 470.35 547.056 476.75 547.056ZM543.305 546.672L570.377 605.424H559.913L540.329 558.192L543.305 546.672ZM524.969 599.184C524.265 601.04 524.361 602.48 525.257 603.504C526.153 604.528 527.177 605.04 528.329 605.04H529.097V606H510.473V605.04C510.473 605.04 510.601 605.04 510.857 605.04C511.113 605.04 511.241 605.04 511.241 605.04C512.521 605.04 513.865 604.592 515.273 603.696C516.681 602.8 517.897 601.296 518.921 599.184H524.969ZM543.305 546.672L543.881 554.928L522.281 605.712H515.849L538.505 557.136C538.569 557.008 538.793 556.528 539.177 555.696C539.561 554.8 539.977 553.776 540.425 552.624C540.937 551.472 541.385 550.352 541.769 549.264C542.217 548.176 542.473 547.312 542.537 546.672H543.305ZM553.673 584.784V587.952H528.521V584.784H553.673ZM557.417 599.184H567.593C568.553 601.296 569.737 602.8 571.145 603.696C572.553 604.592 573.897 605.04 575.177 605.04C575.177 605.04 575.305 605.04 575.561 605.04C575.817 605.04 575.945 605.04 575.945 605.04V606H553.385V605.04H554.153C555.241 605.04 556.233 604.528 557.129 603.504C558.025 602.48 558.121 601.04 557.417 599.184ZM594.783 548.4V606H586.047V548.4H594.783ZM619.455 602.736L620.127 606H594.591V602.736H619.455ZM625.119 590.928L620.415 606H605.151L608.319 602.736C611.327 602.736 613.823 602.256 615.807 601.296C617.855 600.272 619.551 598.864 620.895 597.072C622.239 595.28 623.327 593.232 624.159 590.928H625.119ZM586.239 599.856L587.295 606H579.327V605.04C579.327 605.04 579.519 605.04 579.903 605.04C580.351 605.04 580.607 605.04 580.671 605.04C582.207 605.04 583.455 604.528 584.415 603.504C585.439 602.48 585.983 601.264 586.047 599.856H586.239ZM594.495 554.544V548.4H601.503V549.36C601.439 549.36 601.215 549.36 600.831 549.36C600.511 549.36 600.351 549.36 600.351 549.36C598.815 549.36 597.503 549.872 596.415 550.896C595.327 551.856 594.783 553.072 594.783 554.544H594.495ZM586.239 554.544H586.047C585.983 553.072 585.407 551.856 584.319 550.896C583.295 549.872 582.015 549.36 580.479 549.36C580.479 549.36 580.287 549.36 579.903 549.36C579.519 549.36 579.327 549.36 579.327 549.36V548.4H586.239V554.544ZM720.067 579.12V594.96C718.595 596.88 716.515 598.8 713.827 600.72C711.139 602.64 707.875 604.24 704.035 605.52C700.259 606.736 695.875 607.344 690.883 607.344C683.971 607.28 677.859 605.808 672.547 602.928C667.299 600.048 663.203 596.016 660.259 590.832C657.315 585.584 655.843 579.44 655.843 572.4C655.843 565.36 657.315 559.216 660.259 553.968C663.203 548.72 667.299 544.656 672.547 541.776C677.859 538.896 684.035 537.456 691.075 537.456C694.595 537.456 697.859 537.744 700.867 538.32C703.875 538.832 706.595 539.568 709.027 540.528C711.459 541.424 713.603 542.448 715.459 543.6L716.803 558.096H715.939C714.915 554.128 713.283 550.896 711.043 548.4C708.803 545.84 706.051 543.92 702.787 542.64C699.587 541.36 696.003 540.72 692.035 540.72C686.723 540.72 682.083 542.032 678.115 544.656C674.211 547.28 671.171 550.992 668.995 555.792C666.883 560.528 665.827 566.128 665.827 572.592C665.827 578.864 666.883 584.368 668.995 589.104C671.107 593.84 674.051 597.52 677.827 600.144C681.667 602.704 686.179 604.016 691.363 604.08C693.987 604.08 696.515 603.728 698.947 603.024C701.443 602.32 703.747 601.328 705.859 600.048C707.971 598.768 709.731 597.2 711.139 595.344L711.235 579.12C711.235 576.24 709.603 574.8 706.339 574.8H704.802V573.84H726.307V574.8H724.867C721.539 574.8 719.939 576.24 720.067 579.12ZM746.258 548.4H757.97C760.85 548.4 763.506 548.72 765.938 549.36C768.37 550 770.482 550.992 772.274 552.336C774.066 553.616 775.442 555.248 776.402 557.232C777.426 559.152 777.938 561.424 777.938 564.048C777.938 566.544 777.362 568.944 776.21 571.248C775.058 573.488 773.394 575.376 771.218 576.912C769.042 578.448 766.482 579.408 763.538 579.792C764.882 580.24 766.322 581.264 767.858 582.864C769.394 584.464 770.642 586 771.602 587.472C771.73 587.6 772.178 588.24 772.946 589.392C773.714 590.48 774.674 591.824 775.826 593.424C777.042 594.96 778.258 596.496 779.474 598.032C780.818 599.568 782.002 600.848 783.026 601.872C784.114 602.896 785.266 603.696 786.482 604.272C787.698 604.784 789.106 605.04 790.706 605.04V606H786.098C782.578 606 779.666 605.616 777.362 604.848C775.058 604.08 773.138 603.024 771.602 601.68C770.066 600.336 768.722 598.864 767.57 597.264C767.186 596.816 766.578 595.952 765.746 594.672C764.914 593.392 764.018 592.048 763.058 590.64C762.162 589.168 761.33 587.824 760.562 586.608C759.794 585.392 759.314 584.592 759.122 584.208C757.97 582.416 756.658 580.944 755.186 579.792C753.778 578.576 752.306 577.968 750.77 577.968V577.008C750.77 577.008 751.186 577.04 752.018 577.104C752.85 577.104 753.906 577.072 755.186 577.008C756.85 576.944 758.482 576.784 760.082 576.528C761.746 576.208 763.282 575.44 764.69 574.224C766.098 572.944 767.186 570.96 767.954 568.272C768.146 567.696 768.306 566.992 768.434 566.16C768.562 565.264 768.594 564.304 768.53 563.28C768.402 561.296 768.018 559.6 767.378 558.192C766.738 556.784 765.842 555.632 764.69 554.736C763.602 553.776 762.354 553.072 760.946 552.624C759.602 552.112 758.13 551.824 756.53 551.76C754.162 551.696 752.05 551.696 750.194 551.76C748.402 551.76 747.41 551.728 747.218 551.664C747.218 551.664 747.122 551.408 746.93 550.896C746.802 550.32 746.642 549.776 746.45 549.264C746.322 548.688 746.258 548.4 746.258 548.4ZM747.41 548.4V606H738.674V548.4H747.41ZM738.962 599.856L739.826 606H732.05V605.04C732.114 605.04 732.338 605.04 732.722 605.04C733.106 605.04 733.33 605.04 733.394 605.04C734.866 605.04 736.114 604.528 737.138 603.504C738.162 602.48 738.706 601.264 738.77 599.856H738.962ZM738.962 554.448H738.77C738.706 552.976 738.162 551.76 737.138 550.8C736.114 549.84 734.866 549.36 733.394 549.36C733.33 549.36 733.106 549.36 732.722 549.36C732.338 549.36 732.114 549.36 732.05 549.36V548.4H739.826L738.962 554.448ZM747.122 599.856H747.41C747.41 601.328 747.922 602.576 748.946 603.6C750.034 604.56 751.314 605.04 752.786 605.04C752.786 605.04 752.946 605.04 753.266 605.04C753.65 605.04 753.874 605.04 753.938 605.04L754.034 606H746.162L747.122 599.856ZM822.715 547.056C827.451 547.056 831.803 547.792 835.771 549.264C839.803 550.672 843.291 552.72 846.235 555.408C849.243 558.032 851.579 561.2 853.243 564.912C854.907 568.56 855.739 572.656 855.739 577.2C855.739 581.744 854.907 585.872 853.243 589.584C851.579 593.232 849.243 596.4 846.235 599.088C843.291 601.712 839.803 603.76 835.771 605.232C831.803 606.64 827.451 607.344 822.715 607.344C818.043 607.344 813.723 606.64 809.755 605.232C805.787 603.76 802.299 601.712 799.291 599.088C796.283 596.4 793.947 593.232 792.283 589.584C790.683 585.872 789.883 581.744 789.883 577.2C789.883 572.656 790.683 568.56 792.283 564.912C793.947 561.2 796.283 558.032 799.291 555.408C802.299 552.72 805.787 550.672 809.755 549.264C813.723 547.792 818.043 547.056 822.715 547.056ZM822.715 604.176C827.195 604.176 831.195 603.056 834.715 600.816C838.235 598.512 840.987 595.344 842.971 591.312C845.019 587.28 846.043 582.576 846.043 577.2C846.043 571.76 845.019 567.056 842.971 563.088C840.987 559.056 838.235 555.92 834.715 553.68C831.195 551.376 827.195 550.224 822.715 550.224C818.363 550.224 814.427 551.376 810.906 553.68C807.387 555.92 804.603 559.056 802.555 563.088C800.507 567.056 799.483 571.76 799.483 577.2C799.483 582.576 800.507 587.28 802.555 591.312C804.603 595.344 807.387 598.512 810.906 600.816C814.427 603.056 818.363 604.176 822.715 604.176ZM877.298 548.4V584.688C877.298 590.768 878.802 595.568 881.81 599.088C884.882 602.544 889.042 604.272 894.29 604.272C900.05 604.272 904.562 602.64 907.826 599.376C911.09 596.048 912.722 591.504 912.722 585.744V548.4H917.81V585.552C917.81 592.272 915.666 597.584 911.378 601.488C907.154 605.392 901.298 607.344 893.81 607.344C885.81 607.344 879.602 605.424 875.186 601.584C870.834 597.68 868.658 592.368 868.658 585.648V548.4H877.298ZM868.85 548.4V553.488H868.658C868.594 552.272 868.114 551.28 867.218 550.512C866.386 549.744 865.33 549.36 864.05 549.36C864.05 549.36 863.826 549.36 863.378 549.36C862.93 549.36 862.706 549.36 862.706 549.36V548.4H868.85ZM883.25 548.4V549.36C883.25 549.36 882.994 549.36 882.482 549.36C882.034 549.36 881.81 549.36 881.81 549.36C880.594 549.36 879.538 549.744 878.642 550.512C877.746 551.28 877.298 552.272 877.298 553.488H877.106V548.4H883.25ZM912.914 548.4V553.488H912.722C912.722 552.272 912.274 551.28 911.378 550.512C910.482 549.744 909.426 549.36 908.21 549.36C908.21 549.36 907.954 549.36 907.442 549.36C906.994 549.36 906.77 549.36 906.77 549.36V548.4H912.914ZM923.666 548.4V549.36C923.666 549.36 923.442 549.36 922.994 549.36C922.546 549.36 922.322 549.36 922.322 549.36C921.106 549.36 920.05 549.744 919.154 550.512C918.258 551.28 917.81 552.272 917.81 553.488H917.618V548.4H923.666ZM945.568 548.4H955.744C960.416 548.4 964.384 549.072 967.648 550.416C970.912 551.76 973.408 553.648 975.136 556.08C976.864 558.512 977.728 561.36 977.728 564.624C977.792 568.336 976.992 571.536 975.328 574.224C973.728 576.848 971.552 578.864 968.8 580.272C966.112 581.68 963.136 582.352 959.872 582.288C956.608 582.224 953.376 581.296 950.176 579.504V578.64C950.176 578.64 950.624 578.704 951.52 578.832C952.48 578.96 953.664 578.992 955.072 578.928C956.544 578.8 958.08 578.448 959.68 577.872C961.28 577.296 962.784 576.304 964.192 574.896C965.664 573.488 966.816 571.504 967.648 568.944C967.904 568.176 968.064 567.344 968.128 566.448C968.256 565.488 968.288 564.592 968.224 563.76C968.224 559.984 966.976 557.008 964.48 554.832C962.048 552.656 958.656 551.568 954.304 551.568H946.528C946.528 551.568 946.432 551.312 946.24 550.8C946.112 550.288 945.952 549.776 945.76 549.264C945.632 548.688 945.568 548.4 945.568 548.4ZM946.72 548.4V606H937.984V548.4H946.72ZM938.176 599.856L939.136 606H931.264V605.04C931.328 605.04 931.552 605.04 931.936 605.04C932.32 605.04 932.544 605.04 932.608 605.04C934.08 605.04 935.328 604.528 936.352 603.504C937.376 602.48 937.92 601.264 937.984 599.856H938.176ZM938.176 554.448H937.984C937.92 552.976 937.376 551.76 936.352 550.8C935.328 549.84 934.08 549.36 932.608 549.36C932.544 549.36 932.32 549.36 931.936 549.36C931.552 549.36 931.328 549.36 931.264 549.36V548.4H939.136L938.176 554.448ZM946.432 599.856H946.624C946.688 601.264 947.232 602.48 948.256 603.504C949.28 604.528 950.56 605.04 952.096 605.04C952.16 605.04 952.384 605.04 952.768 605.04C953.152 605.04 953.344 605.04 953.344 605.04V606H945.472L946.432 599.856Z" fill="white"></path></svg>