<svg width="454" height="152" viewBox="0 0 454 152" fill="none" xmlns="http://www.w3.org/2000/svg">
<g clip-path="url(#clip0_78_55)">
<g clip-path="url(#clip1_78_55)">
<path d="M17.9818 75.7005C17.9818 95.9328 27.1603 112.414 46.135 112.414C59.4614 112.414 67.0072 108.266 73.4056 100.721L80.9513 104.118C71.5302 114.93 62.3517 119.96 46.135 119.96C19.2395 119.938 0.132382 100.081 0 75.7005C0.132382 51.2982 19.2395 31.4409 46.135 31.4409C61.7119 31.4409 74.5529 38.7219 82.3414 52.8206L73.7807 55.7109C68 43.3994 58.9539 39.1191 46.6204 39.1191C27.3809 39.1191 17.9598 55.4682 17.9598 75.7005H17.9818Z" fill="#111111"/>
<path d="M108.73 33.0737V110.649H163.028V118.195H92.248V33.0737H108.73Z" fill="#111111"/>
<path d="M176.994 33.0737H193.476V118.195H176.994V33.0737Z" fill="#111111"/>
<path d="M223.505 33.0737L274.427 98.9557V33.0737H282.105V118.195H267.764L216.091 50.3054V118.195H208.545V33.0737H223.505Z" fill="#111111"/>
<path d="M365.175 33.0737V40.6195H312.376V70.295H343.31V77.8408H312.376V110.649H365.175V118.195H295.917V33.0737H365.175Z" fill="#111111"/>
<path d="M415.017 38.2583H425.254L419.76 26.5205L415.017 38.2583Z" fill="#111111"/>
<path d="M428.387 66.6983C428.387 63.4329 426.799 61.3589 420.974 61.3589H415.833V72.0377H420.974C426.071 72.0377 428.387 69.9637 428.387 66.6983Z" fill="#111111"/>
<path d="M453.738 0.000181887H392.754V-0.0439453H40.7954V19.1735H46.0245V5.18513H387.503V146.767H46.0245V132.779H40.7954V151.996H392.732V151.952H453.716V0.000181887H453.738ZM423.511 123.049C427.835 123.049 430.262 121.703 432.358 119.254L434.807 120.357C431.74 123.865 428.784 125.498 423.511 125.498C414.773 125.498 408.596 119.055 408.551 111.157C408.596 103.258 414.796 96.8153 423.511 96.8153C428.563 96.8153 432.733 99.1761 435.248 103.743L432.468 104.67C430.593 100.676 427.659 99.2864 423.665 99.2864C417.421 99.2864 414.376 104.582 414.376 111.157C414.376 117.732 417.355 123.049 423.511 123.049ZM410.493 86.4895V58.8879H421.944C430.13 58.8879 433.77 62.1533 433.77 66.6764C433.77 71.1994 430.064 74.4648 421.944 74.4648H415.832V86.4895H410.493ZM429.975 48.0768L426.379 40.7296H414.023L411.001 48.0768H408.154L419.76 20.4752H423.069L435.668 48.0768H429.975Z" fill="#111111"/>
</g>
</g>
<defs>
<clipPath id="clip0_78_55">
<rect width="454" height="152" fill="white"/>
</clipPath>
<clipPath id="clip1_78_55">
<rect width="453.738" height="241.42" fill="white"/>
</clipPath>
</defs>
</svg>
